<svg id="visual" viewBox="0 0 960 540" width="960" height="540" xmlns="http://www.w3.org/2000/svg" xmlns:xlink="http://www.w3.org/1999/xlink" version="1.1"><rect x="0" y="0" width="960" height="540" fill="#1A1E21"></rect><path d="M0 111L80 119.2C160 127.3 320 143.7 480 150C640 156.3 800 152.7 880 150.8L960 149L960 541L880 541C800 541 640 541 480 541C320 541 160 541 80 541L0 541Z" fill="#e1dd8f"></path><path d="M0 174L80 168.7C160 163.3 320 152.7 480 148.5C640 144.3 800 146.7 880 147.8L960 149L960 541L880 541C800 541 640 541 480 541C320 541 160 541 80 541L0 541Z" fill="#e7d284"></path><path d="M0 234L80 228.5C160 223 320 212 480 198.3C640 184.7 800 168.3 880 160.2L960 152L960 541L880 541C800 541 640 541 480 541C320 541 160 541 80 541L0 541Z" fill="#ecc67b"></path><path d="M0 204L80 203.7C160 203.3 320 202.7 480 218.3C640 234 800 266 880 282L960 298L960 541L880 541C800 541 640 541 480 541C320 541 160 541 80 541L0 541Z" fill="#f1ba75"></path><path d="M0 289L80 289.2C160 289.3 320 289.7 480 284.5C640 279.3 800 268.7 880 263.3L960 258L960 541L880 541C800 541 640 541 480 541C320 541 160 541 80 541L0 541Z" fill="#f5ae72"></path><path d="M0 308L80 310.2C160 312.3 320 316.7 480 331.2C640 345.7 800 370.3 880 382.7L960 395L960 541L880 541C800 541 640 541 480 541C320 541 160 541 80 541L0 541Z" fill="#f8a271"></path><path d="M0 444L80 434C160 424 320 404 480 390.5C640 377 800 370 880 366.5L960 363L960 541L880 541C800 541 640 541 480 541C320 541 160 541 80 541L0 541Z" fill="#f99673"></path><path d="M0 414L80 426.3C160 438.7 320 463.3 480 469.3C640 475.3 800 462.7 880 456.3L960 450L960 541L880 541C800 541 640 541 480 541C320 541 160 541 80 541L0 541Z" fill="#f88a77"></path><path d="M0 531L80 517.8C160 504.7 320 478.3 480 478.8C640 479.3 800 506.7 880 520.3L960 534L960 541L880 541C800 541 640 541 480 541C320 541 160 541 80 541L0 541Z" fill="#f67e7d"></path></svg>